# xmcd CD database file
#
# Track frame offsets:
#	150
#	24183
#	43281
#	66627
#	88847
#	106029
#	132781
#	163357
#	187569
#	201928
#	221277
#	243080
#
# Disc length: 3517 seconds
#
# Revision: 0
# Processed by: cddbd v1.5.2PL0 Copyright (c) Steve Scherf et al.
# Submitted via: CDex 1.51
#
DISCID=a00dbb0c
DTITLE=Son Como Son - Corazon
DYEAR=2003
DGENRE=Salsa
TTITLE0=La Cosita que Tu Tienes
TTITLE1=El Pelotero
TTITLE2=Mi Cha Cha
TTITLE3=Dame un Poquito
TTITLE4=Sensaciones
TTITLE5=La Yuca
TTITLE6=Traigo Caramelo
TTITLE7=Traigo Caramelo
TTITLE8=Aunque Me Rompa la Mano
TTITLE9=Todo el Mundo Moviendose
TTITLE10=De Corazon Corazon
TTITLE11=Entregate
EXTD=YEAR: 2003
EXTT0=
EXTT1=
EXTT2=
EXTT3=
EXTT4=
EXTT5=
EXTT6=
EXTT7=
EXTT8=
EXTT9=
EXTT10=
EXTT11=
PLAYORDER=
